<svg style="position: absolute; width: 0; height: 0; overflow: hidden;" version="1.1" xmlns="http://www.w3.org/2000/svg" xmlns:xlink="http://www.w3.org/1999/xlink">
<defs>
<symbol id="icon-od-logo" viewBox="0 0 32 32">
<path class="path1" d="M9.719 18.042c-0.55 0.415-1.107 0.758-1.672 1.030-0.569 0.27-1.129 0.405-1.687 0.405-0.613 0-1.134-0.105-1.561-0.312-0.428-0.208-0.767-0.474-1.016-0.797-0.252-0.325-0.433-0.683-0.543-1.069-0.113-0.388-0.167-0.752-0.167-1.095 0-0.414 0.087-0.852 0.264-1.312s0.427-0.879 0.752-1.258c0.324-0.378 0.725-0.695 1.198-0.948 0.476-0.251 1.018-0.377 1.631-0.377 0.426 0 0.84 0.035 1.24 0.108 0.399 0.072 0.817 0.211 1.254 0.419 0.437 0.21 0.915 0.497 1.435 0.866 0.519 0.371 1.132 0.844 1.84 1.42-0.428 0.506-0.892 1.016-1.393 1.531-0.502 0.513-1.028 0.978-1.575 1.392zM1.538 21.154c-0.452-0.42-0.857-0.868-1.218-1.342 1.754 6.817 8.104 11.868 15.67 11.868 6.306 0 11.763-3.51 14.424-8.625-0.316 0.193-0.648 0.366-1.004 0.507-0.818 0.324-1.692 0.487-2.621 0.487-0.724 0-1.434-0.086-2.131-0.257s-1.421-0.451-2.175-0.839c-0.751-0.387-1.556-0.892-2.409-1.516-0.856-0.622-1.796-1.374-2.816-2.259-0.501 0.596-1.064 1.183-1.685 1.759-0.624 0.577-1.297 1.096-2.021 1.556-0.724 0.459-1.504 0.833-2.341 1.121-0.836 0.29-1.717 0.434-2.647 0.434-1.32 0-2.588-0.266-3.804-0.799-1.218-0.532-2.291-1.229-3.22-2.096zM30.412 10.873c0.47 0.439 0.892 0.905 1.268 1.402-1.723-6.86-8.092-11.955-15.69-11.955-6.304 0-11.762 3.508-14.422 8.62 0.312-0.192 0.638-0.362 0.988-0.502 0.808-0.324 1.676-0.487 2.606-0.487 0.725 0 1.408 0.068 2.049 0.203s1.314 0.387 2.021 0.757c0.705 0.371 1.48 0.87 2.326 1.501 0.845 0.63 1.835 1.434 2.969 2.408 0.501-0.595 1.073-1.183 1.715-1.759 0.641-0.577 1.332-1.095 2.076-1.556 0.742-0.46 1.535-0.833 2.383-1.123 0.844-0.288 1.742-0.432 2.689-0.432 1.319 0 2.587 0.27 3.804 0.811 1.215 0.541 2.288 1.244 3.219 2.11zM28.643 17.109c0.176-0.459 0.263-0.889 0.263-1.286 0-0.343-0.054-0.709-0.166-1.095s-0.298-0.744-0.558-1.068c-0.261-0.325-0.599-0.591-1.016-0.799-0.419-0.208-0.936-0.312-1.548-0.312-0.556 0-1.126 0.132-1.7 0.393-0.577 0.263-1.143 0.595-1.7 1.001s-1.097 0.865-1.617 1.38-0.994 1.015-1.421 1.502c0.651 0.523 1.244 0.969 1.783 1.339 0.538 0.37 1.039 0.667 1.505 0.892 0.464 0.225 0.907 0.393 1.324 0.5s0.84 0.161 1.268 0.161c0.613 0 1.157-0.126 1.631-0.377 0.475-0.253 0.871-0.573 1.198-0.96 0.325-0.388 0.575-0.812 0.752-1.272z"></path>
</symbol>
</defs>
</svg>
